<?xml version="1.0" encoding="UTF-8" standalone="no"?><svg xmlns="http://www.w3.org/2000/svg" xmlns:xlink="http://www.w3.org/1999/xlink" contentStyleType="text/css" height="922px" preserveAspectRatio="none" style="width:692px;height:922px;background:#FFFFFF;" version="1.1" viewBox="0 0 692 922" width="692px" zoomAndPan="magnify"><defs/><g><rect fill="none" height="27.6094" id="_title" style="stroke:none;stroke-width:1.0;" width="221" x="228.75" y="5"/><text fill="#000000" font-family="sans-serif" font-size="14" font-weight="bold" lengthAdjust="spacing" textLength="211" x="233.75" y="24.5332">Общее поведение frontend-а</text><g id="autorization"><rect fill="#F1F1F1" height="55.2188" rx="12.5" ry="12.5" style="stroke:#181818;stroke-width:0.5;" width="106" x="88" y="54.6094"/><line style="stroke:#181818;stroke-width:0.5;" x1="88" x2="194" y1="82.2188" y2="82.2188"/><text fill="#000000" font-family="sans-serif" font-size="14" lengthAdjust="spacing" textLength="73" x="104.5" y="74.1426">autorization</text><text fill="#000000" font-family="sans-serif" font-size="14" lengthAdjust="spacing" textLength="86" x="93" y="101.752">Авторизация</text></g><g id="get_states"><rect fill="#F1F1F1" height="72.8281" rx="12.5" ry="12.5" style="stroke:#181818;stroke-width:0.5;" width="124" x="229" y="45.6094"/><line style="stroke:#181818;stroke-width:0.5;" x1="229" x2="353" y1="73.2188" y2="73.2188"/><text fill="#000000" font-family="sans-serif" font-size="14" lengthAdjust="spacing" textLength="66" x="258" y="65.1426">get_states</text><text fill="#000000" font-family="sans-serif" font-size="14" lengthAdjust="spacing" textLength="101" x="234" y="92.752">Выбор области</text><text fill="#000000" font-family="sans-serif" font-size="14" lengthAdjust="spacing" textLength="104" x="234" y="110.3613">или республики</text></g><g id="get_areas"><rect fill="#F1F1F1" height="72.8281" rx="12.5" ry="12.5" style="stroke:#181818;stroke-width:0.5;" width="84" x="388" y="45.6094"/><line style="stroke:#181818;stroke-width:0.5;" x1="388" x2="472" y1="73.2188" y2="73.2188"/><text fill="#000000" font-family="sans-serif" font-size="14" lengthAdjust="spacing" textLength="64" x="398" y="65.1426">get_areas</text><text fill="#000000" font-family="sans-serif" font-size="14" lengthAdjust="spacing" textLength="43" x="393" y="92.752">Выбор</text><text fill="#000000" font-family="sans-serif" font-size="14" lengthAdjust="spacing" textLength="48" x="393" y="110.3613">района</text></g><g id="get_cities"><rect fill="#F1F1F1" height="72.8281" rx="12.5" ry="12.5" style="stroke:#181818;stroke-width:0.5;" width="80" x="507" y="45.6094"/><line style="stroke:#181818;stroke-width:0.5;" x1="507" x2="587" y1="73.2188" y2="73.2188"/><text fill="#000000" font-family="sans-serif" font-size="14" lengthAdjust="spacing" textLength="60" x="517" y="65.1426">get_cities</text><text fill="#000000" font-family="sans-serif" font-size="14" lengthAdjust="spacing" textLength="43" x="512" y="92.752">Выбор</text><text fill="#000000" font-family="sans-serif" font-size="14" lengthAdjust="spacing" textLength="45" x="512" y="110.3613">города</text></g><g id="put_cities"><rect fill="#F1F1F1" height="72.8281" rx="12.5" ry="12.5" style="stroke:#181818;stroke-width:0.5;" width="121" x="408.5" y="178.6094"/><line style="stroke:#181818;stroke-width:0.5;" x1="408.5" x2="529.5" y1="206.2188" y2="206.2188"/><text fill="#000000" font-family="sans-serif" font-size="14" lengthAdjust="spacing" textLength="60" x="439" y="198.1426">put_cities</text><text fill="#000000" font-family="sans-serif" font-size="14" lengthAdjust="spacing" textLength="80" x="413.5" y="225.752">Сохранение</text><text fill="#000000" font-family="sans-serif" font-size="14" lengthAdjust="spacing" textLength="101" x="413.5" y="243.3613">мултиполигона</text></g><g id="delete_cities"><rect fill="#F1F1F1" height="72.8281" rx="12.5" ry="12.5" style="stroke:#181818;stroke-width:0.5;" width="121" x="564.5" y="178.6094"/><line style="stroke:#181818;stroke-width:0.5;" x1="564.5" x2="685.5" y1="206.2188" y2="206.2188"/><text fill="#000000" font-family="sans-serif" font-size="14" lengthAdjust="spacing" textLength="79" x="585.5" y="198.1426">delete_cities</text><text fill="#000000" font-family="sans-serif" font-size="14" lengthAdjust="spacing" textLength="65" x="569.5" y="225.752">Удаление</text><text fill="#000000" font-family="sans-serif" font-size="14" lengthAdjust="spacing" textLength="101" x="569.5" y="243.3613">мултиполигона</text></g><g id="get_houses"><rect fill="#F1F1F1" height="72.8281" rx="12.5" ry="12.5" style="stroke:#181818;stroke-width:0.5;" width="142" x="398" y="311.6094"/><line style="stroke:#181818;stroke-width:0.5;" x1="398" x2="540" y1="339.2188" y2="339.2188"/><text fill="#000000" font-family="sans-serif" font-size="14" lengthAdjust="spacing" textLength="74" x="432" y="331.1426">get_houses</text><text fill="#000000" font-family="sans-serif" font-size="14" lengthAdjust="spacing" textLength="122" x="403" y="358.752">Выборка объектов</text><text fill="#000000" font-family="sans-serif" font-size="14" lengthAdjust="spacing" textLength="41" x="403" y="376.3613">жилья</text></g><g id="input_ceofficient"><rect fill="#F1F1F1" height="72.8281" rx="12.5" ry="12.5" style="stroke:#181818;stroke-width:0.5;" width="164" x="320" y="444.6094"/><line style="stroke:#181818;stroke-width:0.5;" x1="320" x2="484" y1="472.2188" y2="472.2188"/><text fill="#000000" font-family="sans-serif" font-size="14" lengthAdjust="spacing" textLength="103" x="350.5" y="464.1426">input_ceofficient</text><text fill="#000000" font-family="sans-serif" font-size="14" lengthAdjust="spacing" textLength="135" x="325" y="491.752">Ввод коэффициента</text><text fill="#000000" font-family="sans-serif" font-size="14" lengthAdjust="spacing" textLength="144" x="325" y="509.3613">плотности населения</text></g><g id="put_houses"><rect fill="#F1F1F1" height="72.8281" rx="12.5" ry="12.5" style="stroke:#181818;stroke-width:0.5;" width="165" x="289.5" y="577.6094"/><line style="stroke:#181818;stroke-width:0.5;" x1="289.5" x2="454.5" y1="605.2188" y2="605.2188"/><text fill="#000000" font-family="sans-serif" font-size="14" lengthAdjust="spacing" textLength="74" x="335" y="597.1426">put_houses</text><text fill="#000000" font-family="sans-serif" font-size="14" lengthAdjust="spacing" textLength="145" x="294.5" y="624.752">Сохранение объектов</text><text fill="#000000" font-family="sans-serif" font-size="14" lengthAdjust="spacing" textLength="137" x="294.5" y="642.3613">жилья c населением</text></g><g id="delete_houses"><rect fill="#F1F1F1" height="72.8281" rx="12.5" ry="12.5" style="stroke:#181818;stroke-width:0.5;" width="157" x="489.5" y="577.6094"/><line style="stroke:#181818;stroke-width:0.5;" x1="489.5" x2="646.5" y1="605.2188" y2="605.2188"/><text fill="#000000" font-family="sans-serif" font-size="14" lengthAdjust="spacing" textLength="93" x="521.5" y="597.1426">delete_houses</text><text fill="#000000" font-family="sans-serif" font-size="14" lengthAdjust="spacing" textLength="130" x="494.5" y="624.752">Удаление объектов</text><text fill="#000000" font-family="sans-serif" font-size="14" lengthAdjust="spacing" textLength="137" x="494.5" y="642.3613">жилья c населением</text></g><g id="get_population"><rect fill="#F1F1F1" height="72.8281" rx="12.5" ry="12.5" style="stroke:#181818;stroke-width:0.5;" width="175" x="284.5" y="710.6094"/><line style="stroke:#181818;stroke-width:0.5;" x1="284.5" x2="459.5" y1="738.2188" y2="738.2188"/><text fill="#000000" font-family="sans-serif" font-size="14" lengthAdjust="spacing" textLength="94" x="325" y="730.1426">get_population</text><text fill="#000000" font-family="sans-serif" font-size="14" lengthAdjust="spacing" textLength="108" x="289.5" y="757.752">Выборка сетки с</text><text fill="#000000" font-family="sans-serif" font-size="14" lengthAdjust="spacing" textLength="155" x="289.5" y="775.3613">плотностью населения</text></g><g id="put_population"><rect fill="#F1F1F1" height="72.8281" rx="12.5" ry="12.5" style="stroke:#181818;stroke-width:0.5;" width="175" x="179.5" y="843.6094"/><line style="stroke:#181818;stroke-width:0.5;" x1="179.5" x2="354.5" y1="871.2188" y2="871.2188"/><text fill="#000000" font-family="sans-serif" font-size="14" lengthAdjust="spacing" textLength="94" x="220" y="863.1426">put_population</text><text fill="#000000" font-family="sans-serif" font-size="14" lengthAdjust="spacing" textLength="131" x="184.5" y="890.752">Сохранение сетки с</text><text fill="#000000" font-family="sans-serif" font-size="14" lengthAdjust="spacing" textLength="155" x="184.5" y="908.3613">плотностью населения</text></g><g id="delete_population"><rect fill="#F1F1F1" height="72.8281" rx="12.5" ry="12.5" style="stroke:#181818;stroke-width:0.5;" width="175" x="389.5" y="843.6094"/><line style="stroke:#181818;stroke-width:0.5;" x1="389.5" x2="564.5" y1="871.2188" y2="871.2188"/><text fill="#000000" font-family="sans-serif" font-size="14" lengthAdjust="spacing" textLength="113" x="420.5" y="863.1426">delete_population</text><text fill="#000000" font-family="sans-serif" font-size="14" lengthAdjust="spacing" textLength="116" x="394.5" y="890.752">Удаление сетки с</text><text fill="#000000" font-family="sans-serif" font-size="14" lengthAdjust="spacing" textLength="155" x="394.5" y="908.3613">плотностью населения</text></g><g id="logout"><rect fill="#F1F1F1" height="72.8281" rx="12.5" ry="12.5" style="stroke:#181818;stroke-width:0.5;" width="83" x="61.5" y="843.6094"/><line style="stroke:#181818;stroke-width:0.5;" x1="61.5" x2="144.5" y1="871.2188" y2="871.2188"/><text fill="#000000" font-family="sans-serif" font-size="14" lengthAdjust="spacing" textLength="39" x="83.5" y="863.1426">logout</text><text fill="#000000" font-family="sans-serif" font-size="14" lengthAdjust="spacing" textLength="63" x="66.5" y="890.752">Закрытие</text><text fill="#000000" font-family="sans-serif" font-size="14" lengthAdjust="spacing" textLength="45" x="66.5" y="908.3613">сессии</text></g><ellipse cx="43" cy="82.1094" fill="#222222" rx="10" ry="10" style="stroke:none;stroke-width:1.0;"/><ellipse cx="16" cy="880.1094" fill="none" rx="10" ry="10" style="stroke:#222222;stroke-width:1.0;"/><ellipse cx="16.5" cy="880.6094" fill="#222222" rx="6" ry="6" style="stroke:none;stroke-width:1.0;"/><!--MD5=[4467dc7f85876f20a0dd3a6e79a9045e]
link *start to autorization--><g id="link_*start_autorization"><path d="M53.34,82.1094 C63.15,82.1094 72.97,82.1094 82.79,82.1094 " fill="none" id="*start-to-autorization" style="stroke:#181818;stroke-width:1.0;"/><polygon fill="#181818" points="87.92,82.1094,78.92,78.1094,82.92,82.1094,78.92,86.1094,87.92,82.1094" style="stroke:#181818;stroke-width:1.0;"/></g><!--MD5=[3bdf0f324c934fb72b8450ead227ec60]
link autorization to get_states--><g id="link_autorization_get_states"><path d="M194.03,82.1094 C203.92,82.1094 213.81,82.1094 223.7,82.1094 " fill="none" id="autorization-to-get_states" style="stroke:#181818;stroke-width:1.0;"/><polygon fill="#181818" points="228.88,82.1094,219.88,78.1094,223.88,82.1094,219.88,86.1094,228.88,82.1094" style="stroke:#181818;stroke-width:1.0;"/></g><!--MD5=[0193c29d21d4235c12d8c841992f458a]
link get_states to get_areas--><g id="link_get_states_get_areas"><path d="M353.17,82.1094 C363.05,82.1094 372.93,82.1094 382.82,82.1094 " fill="none" id="get_states-to-get_areas" style="stroke:#181818;stroke-width:1.0;"/><polygon fill="#181818" points="387.98,82.1094,378.98,78.1094,382.98,82.1094,378.98,86.1094,387.98,82.1094" style="stroke:#181818;stroke-width:1.0;"/></g><!--MD5=[290befb357b738035892b92c87550940]
link get_areas to get_cities--><g id="link_get_areas_get_cities"><path d="M472.05,82.1094 C481.94,82.1094 491.83,82.1094 501.72,82.1094 " fill="none" id="get_areas-to-get_cities" style="stroke:#181818;stroke-width:1.0;"/><polygon fill="#181818" points="506.89,82.1094,497.89,78.1094,501.89,82.1094,497.89,86.1094,506.89,82.1094" style="stroke:#181818;stroke-width:1.0;"/></g><!--MD5=[9bafe4d54788492f4c2a44d8eb13d5eb]
link get_cities to put_cities--><g id="link_get_cities_put_cities"><path d="M525.69,118.9094 C515.54,135.9494 503.37,156.3894 492.91,173.9594 " fill="none" id="get_cities-to-put_cities" style="stroke:#181818;stroke-width:1.0;"/><polygon fill="#181818" points="490.29,178.3594,498.3282,172.6684,492.8457,174.0619,491.4522,168.5793,490.29,178.3594" style="stroke:#181818;stroke-width:1.0;"/></g><!--MD5=[c45dba40a8ff3fd18aa3d0646342ecdb]
link put_cities to delete_cities--><g id="link_put_cities_delete_cities"><path d="M529.63,215.1094 C539.47,215.1094 549.3,215.1094 559.14,215.1094 " fill="none" id="put_cities-to-delete_cities" style="stroke:#181818;stroke-width:1.0;"/><polygon fill="#181818" points="564.28,215.1094,555.28,211.1094,559.28,215.1094,555.28,219.1094,564.28,215.1094" style="stroke:#181818;stroke-width:1.0;"/></g><!--MD5=[e5ecbd995dbf91132c6f93ff7f33eff5]
reverse link get_cities to delete_cities--><g id="link_get_cities_delete_cities"><path d="M570.93,123.3094 C581.4,140.8794 593.57,161.3194 603.71,178.3594 " fill="none" id="get_cities-backto-delete_cities" style="stroke:#181818;stroke-width:1.0;"/><polygon fill="#181818" points="568.31,118.9094,569.4722,128.6894,570.8657,123.2069,576.3482,124.6004,568.31,118.9094" style="stroke:#181818;stroke-width:1.0;"/></g><!--MD5=[a4155907bd32b7acf6dcd6d6a723bb16]
link put_cities to get_houses--><g id="link_put_cities_get_houses"><path d="M469,251.9094 C469,268.6594 469,288.6994 469,306.0594 " fill="none" id="put_cities-to-get_houses" style="stroke:#181818;stroke-width:1.0;"/><polygon fill="#181818" points="469,311.3594,473,302.3594,469,306.3594,465,302.3594,469,311.3594" style="stroke:#181818;stroke-width:1.0;"/></g><!--MD5=[717d33cc2d90b455355da74021ec798d]
link get_houses to input_ceofficient--><g id="link_get_houses_input_ceofficient"><path d="M450.69,384.9094 C442.05,401.7994 431.7,422.0394 422.77,439.5094 " fill="none" id="get_houses-to-input_ceofficient" style="stroke:#181818;stroke-width:1.0;"/><polygon fill="#181818" points="420.29,444.3594,427.9404,438.1568,422.5603,439.9045,420.8126,434.5244,420.29,444.3594" style="stroke:#181818;stroke-width:1.0;"/></g><!--MD5=[168beb46a455e947c53041f98a3c4edf]
link input_ceofficient to put_houses--><g id="link_input_ceofficient_put_houses"><path d="M393.8,517.9094 C389.97,534.6594 385.38,554.6994 381.4,572.0594 " fill="none" id="input_ceofficient-to-put_houses" style="stroke:#181818;stroke-width:1.0;"/><polygon fill="#181818" points="380.19,577.3594,386.0961,569.4779,381.3049,572.4853,378.2975,567.694,380.19,577.3594" style="stroke:#181818;stroke-width:1.0;"/></g><!--MD5=[da911ca3b2303010862dd4c4c1fef25b]
link put_houses to delete_houses--><g id="link_put_houses_delete_houses"><path d="M454.69,614.1094 C464.49,614.1094 474.29,614.1094 484.09,614.1094 " fill="none" id="put_houses-to-delete_houses" style="stroke:#181818;stroke-width:1.0;"/><polygon fill="#181818" points="489.21,614.1094,480.21,610.1094,484.21,614.1094,480.21,618.1094,489.21,614.1094" style="stroke:#181818;stroke-width:1.0;"/></g><!--MD5=[264090dbd3993ad42aa0d21e7b209ef5]
reverse link get_houses to delete_houses--><g id="link_get_houses_delete_houses"><path d="M484.17,389.5594 C503.38,440.7794 536.18,528.2694 554.54,577.2294 " fill="none" id="get_houses-backto-delete_houses" style="stroke:#181818;stroke-width:1.0;"/><polygon fill="#181818" points="482.35,384.7094,481.7648,394.5408,484.1056,389.391,489.2554,391.7318,482.35,384.7094" style="stroke:#181818;stroke-width:1.0;"/></g><!--MD5=[fe2cbcd7cb86ac6043ee2d25c058176b]
link put_houses to get_population--><g id="link_put_houses_get_population"><path d="M372,650.9094 C372,667.6594 372,687.6994 372,705.0594 " fill="none" id="put_houses-to-get_population" style="stroke:#181818;stroke-width:1.0;"/><polygon fill="#181818" points="372,710.3594,376,701.3594,372,705.3594,368,701.3594,372,710.3594" style="stroke:#181818;stroke-width:1.0;"/></g><!--MD5=[d606b69f34277cc8e0355095720fbc10]
link get_population to put_population--><g id="link_get_population_put_population"><path d="M343.31,783.9094 C329.53,801.0894 312.99,821.7394 298.83,839.3994 " fill="none" id="get_population-to-put_population" style="stroke:#181818;stroke-width:1.0;"/><polygon fill="#181818" points="295.66,843.3594,304.4118,838.842,298.7887,839.4592,298.1715,833.8361,295.66,843.3594" style="stroke:#181818;stroke-width:1.0;"/></g><!--MD5=[7fb9b5516a1a4956d208ba3baaa82e29]
link put_population to delete_population--><g id="link_put_population_delete_population"><path d="M354.77,880.1094 C364.53,880.1094 374.29,880.1094 384.05,880.1094 " fill="none" id="put_population-to-delete_population" style="stroke:#181818;stroke-width:1.0;"/><polygon fill="#181818" points="389.15,880.1094,380.15,876.1094,384.15,880.1094,380.15,884.1094,389.15,880.1094" style="stroke:#181818;stroke-width:1.0;"/></g><!--MD5=[6e84e730bdadf5c13a09a6b78ba19b0f]
reverse link get_population to delete_population--><g id="link_get_population_delete_population"><path d="M403.86,787.8594 C418.03,805.5294 434.57,826.1794 448.34,843.3594 " fill="none" id="get_population-backto-delete_population" style="stroke:#181818;stroke-width:1.0;"/><polygon fill="#181818" points="400.69,783.9094,403.2015,793.4326,403.8187,787.8095,409.4418,788.4267,400.69,783.9094" style="stroke:#181818;stroke-width:1.0;"/></g><!--MD5=[56eee0926a2925c4bf0db7e6e88eebe4]
reverse link logout to put_population--><g id="link_logout_put_population"><path d="M149.75,880.1094 C159.52,880.1094 169.29,880.1094 179.05,880.1094 " fill="none" id="logout-backto-put_population" style="stroke:#181818;stroke-width:1.0;"/><polygon fill="#181818" points="144.64,880.1094,153.64,884.1094,149.64,880.1094,153.64,876.1094,144.64,880.1094" style="stroke:#181818;stroke-width:1.0;"/></g><!--MD5=[9b6e7514bce5027c3120fb879f472e76]
reverse link *end to logout--><g id="link_*end_logout"><path d="M31.41,880.1094 C41.37,880.1094 51.33,880.1094 61.3,880.1094 " fill="none" id="*end-backto-logout" style="stroke:#181818;stroke-width:1.0;"/><polygon fill="#181818" points="26.2,880.1094,35.2,884.1094,31.2,880.1094,35.2,876.1094,26.2,880.1094" style="stroke:#181818;stroke-width:1.0;"/></g><!--MD5=[dc6d8d0f0e01b4dba209be35c3f3441a]
@startuml frontend

title Общее поведение frontend-а

state autorization : Авторизация
state get_states : Выбор области\nили республики
state get_areas : Выбор\nрайона
state get_cities : Выбор\nгорода
state put_cities : Сохранение\nмултиполигона
state delete_cities : Удаление\nмултиполигона
state get_houses : Выборка объектов\nжилья
state input_ceofficient : Ввод коэффициента\nплотности населения
state put_houses : Сохранение объектов\nжилья c населением
state delete_houses : Удаление объектов\nжилья c населением
state get_population : Выборка сетки с\nплотностью населения
state put_population : Сохранение сетки с\nплотностью населения
state delete_population : Удаление сетки с\nплотностью населения
state logout : Закрытие\nсессии

[*] -> autorization
autorization -> get_states
get_states -> get_areas
get_areas -> get_cities
get_cities -down-> put_cities
put_cities -> delete_cities
delete_cities -up-> get_cities
put_cities -down-> get_houses
get_houses -down-> input_ceofficient
input_ceofficient -down-> put_houses
put_houses -> delete_houses
delete_houses -up-> get_houses
put_houses -down-> get_population
get_population -down-> put_population
put_population -> delete_population
delete_population -up-> get_population
put_population -left-> logout
logout -left-> [*]

@enduml

PlantUML version 1.2022.7(Mon Aug 22 20:01:30 MSK 2022)
(GPL source distribution)
Java Runtime: Java(TM) SE Runtime Environment
JVM: Java HotSpot(TM) 64-Bit Server VM
Default Encoding: Cp1251
Language: en
Country: US
--></g></svg>