<?xml version="1.0" encoding="UTF-8" standalone="no"?><svg xmlns="http://www.w3.org/2000/svg" xmlns:xlink="http://www.w3.org/1999/xlink" contentStyleType="text/css" height="799px" preserveAspectRatio="none" style="width:649px;height:799px;background:#FFFFFF;" version="1.1" viewBox="0 0 649 799" width="649px" zoomAndPan="magnify"><defs/><g><rect fill="none" height="27.6094" id="_title" style="stroke:none;stroke-width:1.0;" width="203" x="216" y="5"/><text fill="#000000" font-family="sans-serif" font-size="14" font-weight="bold" lengthAdjust="spacing" textLength="193" x="221" y="24.5332">Общие типы таблиц в базе</text><!--MD5=[4ac0d9c05859dec60da10c10937225a7]
cluster Postgress--><g id="cluster_Postgress"><path d="M6,54.6094 C6,44.6094 319,44.6094 319,44.6094 C319,44.6094 632,44.6094 632,54.6094 L632,772.6094 C632,782.6094 319,782.6094 319,782.6094 C319,782.6094 6,782.6094 6,772.6094 L6,54.6094 " fill="none" style="stroke:#181818;stroke-width:1.0;"/><path d="M6,54.6094 C6,64.6094 319,64.6094 319,64.6094 C319,64.6094 632,64.6094 632,54.6094 " fill="none" style="stroke:#181818;stroke-width:1.0;"/><text fill="#000000" font-family="sans-serif" font-size="14" font-weight="bold" lengthAdjust="spacing" textLength="71" x="283.5" y="81.1426">Postgress</text></g><!--MD5=[a9e53c97077dfb764e58b8e2655f497d]
cluster GeoJSON--><g id="cluster_GeoJSON"><path d="M226.5,355.6094 L294.5,355.6094 A3.75,3.75 0 0 1 297,358.1094 L304,379.2188 L591.5,379.2188 A2.5,2.5 0 0 1 594,381.7188 L594,539.1094 A2.5,2.5 0 0 1 591.5,541.6094 L226.5,541.6094 A2.5,2.5 0 0 1 224,539.1094 L224,358.1094 A2.5,2.5 0 0 1 226.5,355.6094 " fill="none" style="stroke:#000000;stroke-width:1.5;"/><line style="stroke:#000000;stroke-width:1.5;" x1="224" x2="304" y1="379.2188" y2="379.2188"/><text fill="#000000" font-family="sans-serif" font-size="14" font-weight="bold" lengthAdjust="spacing" textLength="67" x="228" y="372.1426">GeoJSON</text></g><!--MD5=[a7c50bdc3690e90d4f31031669f4a9a8]
cluster DataLens--><g id="cluster_DataLens"><path d="M272.5,581.6094 L338.5,581.6094 A3.75,3.75 0 0 1 341,584.1094 L348,605.2188 L545.5,605.2188 A2.5,2.5 0 0 1 548,607.7188 L548,748.1094 A2.5,2.5 0 0 1 545.5,750.6094 L272.5,750.6094 A2.5,2.5 0 0 1 270,748.1094 L270,584.1094 A2.5,2.5 0 0 1 272.5,581.6094 " fill="none" style="stroke:#000000;stroke-width:1.5;"/><line style="stroke:#000000;stroke-width:1.5;" x1="270" x2="348" y1="605.2188" y2="605.2188"/><text fill="#000000" font-family="sans-serif" font-size="14" font-weight="bold" lengthAdjust="spacing" textLength="65" x="274" y="598.1426">DataLens</text></g><!--MD5=[fac864e77539af95038f0151207ed802]
cluster API--><g id="cluster_API"><path d="M257.5,111.6094 L280.5,111.6094 A3.75,3.75 0 0 1 283,114.1094 L290,135.2188 L597.5,135.2188 A2.5,2.5 0 0 1 600,137.7188 L600,313.1094 A2.5,2.5 0 0 1 597.5,315.6094 L257.5,315.6094 A2.5,2.5 0 0 1 255,313.1094 L255,114.1094 A2.5,2.5 0 0 1 257.5,111.6094 " fill="none" style="stroke:#000000;stroke-width:1.5;"/><line style="stroke:#000000;stroke-width:1.5;" x1="255" x2="290" y1="135.2188" y2="135.2188"/><text fill="#000000" font-family="sans-serif" font-size="14" font-weight="bold" lengthAdjust="spacing" textLength="22" x="259" y="128.1426">API</text></g><g id="elem_GMN6"><path d="M51.5,421.1094 L51.5,496.5156 L196.5,496.5156 L196.5,431.1094 L186.5,421.1094 L51.5,421.1094 " fill="#FEFFDD" style="stroke:#181818;stroke-width:0.5;"/><path d="M186.5,421.1094 L186.5,431.1094 L196.5,431.1094 L186.5,421.1094 " fill="#FEFFDD" style="stroke:#181818;stroke-width:1.0;"/><text fill="#000000" font-family="sans-serif" font-size="13" lengthAdjust="spacing" textLength="90" x="57.5" y="439.6045">Сырые данные</text><text fill="#000000" font-family="sans-serif" font-size="13" lengthAdjust="spacing" textLength="124" x="57.5" y="455.9561">в формате GeoJSON</text><text fill="#000000" font-family="sans-serif" font-size="13" lengthAdjust="spacing" textLength="102" x="57.5" y="472.3076">от организаторов</text><text fill="#000000" font-family="sans-serif" font-size="13" lengthAdjust="spacing" textLength="103" x="57.5" y="488.6592">со всеми полями</text></g><g id="elem_GMN12"><path d="M71.5,646.6094 L71.5,705.6641 L242.5,705.6641 L242.5,656.6094 L232.5,646.6094 L71.5,646.6094 " fill="#FEFFDD" style="stroke:#181818;stroke-width:0.5;"/><path d="M232.5,646.6094 L232.5,656.6094 L242.5,656.6094 L232.5,646.6094 " fill="#FEFFDD" style="stroke:#181818;stroke-width:1.0;"/><text fill="#000000" font-family="sans-serif" font-size="13" lengthAdjust="spacing" textLength="143" x="77.5" y="665.1045">Данные в CSV формате</text><text fill="#000000" font-family="sans-serif" font-size="13" lengthAdjust="spacing" textLength="150" x="77.5" y="681.4561">с полями необходимыми</text><text fill="#000000" font-family="sans-serif" font-size="13" lengthAdjust="spacing" textLength="114" x="77.5" y="697.8076">в Yandex DataLens</text></g><g id="elem_GMN18"><path d="M22.5,186.1094 L22.5,261.5156 L227.5,261.5156 L227.5,196.1094 L217.5,186.1094 L22.5,186.1094 " fill="#FEFFDD" style="stroke:#181818;stroke-width:0.5;"/><path d="M217.5,186.1094 L217.5,196.1094 L227.5,196.1094 L217.5,186.1094 " fill="#FEFFDD" style="stroke:#181818;stroke-width:1.0;"/><text fill="#000000" font-family="sans-serif" font-size="13" lengthAdjust="spacing" textLength="184" x="28.5" y="204.6045">Обогащённые и обработанные</text><text fill="#000000" font-family="sans-serif" font-size="13" lengthAdjust="spacing" textLength="173" x="28.5" y="220.9561">данные в формате GeoJSON</text><text fill="#000000" font-family="sans-serif" font-size="13" lengthAdjust="spacing" textLength="150" x="28.5" y="237.3076">с полями необходимыми</text><text fill="#000000" font-family="sans-serif" font-size="13" lengthAdjust="spacing" textLength="124" x="28.5" y="253.6592">для API в Backend-е</text></g><!--MD5=[43477baba7d237546a87135fefd823b9]
class GeoJSON.buildings--><g id="elem_GeoJSON.buildings"><rect codeLine="6" fill="#F1F1F1" height="118.4375" id="GeoJSON.buildings" rx="2.5" ry="2.5" style="stroke:#181818;stroke-width:0.5;" width="134" x="436" y="399.6094"/><ellipse cx="471.7" cy="415.6094" fill="#ADD1B2" rx="11" ry="11" style="stroke:#181818;stroke-width:1.0;"/><path d="M472.6219,413 L472.6219,419.6563 L473.7781,419.6563 Q474.3875,419.6563 474.6453,419.8906 Q474.9031,420.125 474.9031,420.5156 Q474.9031,420.8906 474.6453,421.125 Q474.3875,421.3594 473.7781,421.3594 L469.7938,421.3594 Q469.1688,421.3594 468.9109,421.125 Q468.6531,420.8906 468.6531,420.5 Q468.6531,420.125 468.9109,419.8906 Q469.1688,419.6563 469.7938,419.6563 L470.9188,419.6563 L470.9188,413 L469.075,413 L469.075,414.6094 Q469.075,415.2188 468.8406,415.4844 Q468.6063,415.75 468.2313,415.75 Q467.8563,415.75 467.6219,415.4844 Q467.3875,415.2188 467.3875,414.6094 L467.3875,411.2969 L476.2,411.2969 L476.2,414.6094 Q476.2,415.2188 475.9578,415.4844 Q475.7156,415.75 475.3406,415.75 Q474.9656,415.75 474.7313,415.4844 Q474.4969,415.2188 474.4969,414.6094 L474.4969,413 L472.6219,413 Z " fill="#000000"/><text fill="#000000" font-family="sans-serif" font-size="14" lengthAdjust="spacing" textLength="56" x="490.3" y="421.3379">buildings</text><line style="stroke:#181818;stroke-width:0.5;" x1="437" x2="569" y1="431.6094" y2="431.6094"/><text fill="#000000" font-family="sans-serif" font-size="14" lengthAdjust="spacing" textLength="30" x="442" y="450.1426">int id</text><text fill="#000000" font-family="sans-serif" font-size="14" lengthAdjust="spacing" textLength="69" x="442" y="467.752">any field_1</text><text fill="#000000" font-family="sans-serif" font-size="14" lengthAdjust="spacing" textLength="69" x="442" y="485.3613">any field_2</text><text fill="#000000" font-family="sans-serif" font-size="14" lengthAdjust="spacing" textLength="122" x="442" y="502.9707">geometry geometry</text><line style="stroke:#181818;stroke-width:0.5;" x1="437" x2="569" y1="510.0469" y2="510.0469"/></g><!--MD5=[d5d1b11926c95626aaea1ae4b46aae78]
class GeoJSON.roads--><g id="elem_GeoJSON.roads"><rect codeLine="12" fill="#F1F1F1" height="118.4375" id="GeoJSON.roads" rx="2.5" ry="2.5" style="stroke:#181818;stroke-width:0.5;" width="134" x="267" y="399.6094"/><ellipse cx="311.75" cy="415.6094" fill="#ADD1B2" rx="11" ry="11" style="stroke:#181818;stroke-width:1.0;"/><path d="M312.6719,413 L312.6719,419.6563 L313.8281,419.6563 Q314.4375,419.6563 314.6953,419.8906 Q314.9531,420.125 314.9531,420.5156 Q314.9531,420.8906 314.6953,421.125 Q314.4375,421.3594 313.8281,421.3594 L309.8438,421.3594 Q309.2188,421.3594 308.9609,421.125 Q308.7031,420.8906 308.7031,420.5 Q308.7031,420.125 308.9609,419.8906 Q309.2188,419.6563 309.8438,419.6563 L310.9688,419.6563 L310.9688,413 L309.125,413 L309.125,414.6094 Q309.125,415.2188 308.8906,415.4844 Q308.6563,415.75 308.2813,415.75 Q307.9063,415.75 307.6719,415.4844 Q307.4375,415.2188 307.4375,414.6094 L307.4375,411.2969 L316.25,411.2969 L316.25,414.6094 Q316.25,415.2188 316.0078,415.4844 Q315.7656,415.75 315.3906,415.75 Q315.0156,415.75 314.7813,415.4844 Q314.5469,415.2188 314.5469,414.6094 L314.5469,413 L312.6719,413 Z " fill="#000000"/><text fill="#000000" font-family="sans-serif" font-size="14" lengthAdjust="spacing" textLength="36" x="332.25" y="421.3379">roads</text><line style="stroke:#181818;stroke-width:0.5;" x1="268" x2="400" y1="431.6094" y2="431.6094"/><text fill="#000000" font-family="sans-serif" font-size="14" lengthAdjust="spacing" textLength="30" x="273" y="450.1426">int id</text><text fill="#000000" font-family="sans-serif" font-size="14" lengthAdjust="spacing" textLength="69" x="273" y="467.752">any field_1</text><text fill="#000000" font-family="sans-serif" font-size="14" lengthAdjust="spacing" textLength="69" x="273" y="485.3613">any field_2</text><text fill="#000000" font-family="sans-serif" font-size="14" lengthAdjust="spacing" textLength="122" x="273" y="502.9707">geometry geometry</text><line style="stroke:#181818;stroke-width:0.5;" x1="268" x2="400" y1="510.0469" y2="510.0469"/></g><!--MD5=[0a4c648ae5714eec98441ba5fcc55d5a]
class DataLens.buildings--><g id="elem_DataLens.buildings"><rect codeLine="26" fill="#F1F1F1" height="100.8281" id="DataLens.buildings" rx="2.5" ry="2.5" style="stroke:#181818;stroke-width:0.5;" width="88" x="436" y="625.6094"/><ellipse cx="451" cy="641.6094" fill="#ADD1B2" rx="11" ry="11" style="stroke:#181818;stroke-width:1.0;"/><path d="M451.9219,639 L451.9219,645.6563 L453.0781,645.6563 Q453.6875,645.6563 453.9453,645.8906 Q454.2031,646.125 454.2031,646.5156 Q454.2031,646.8906 453.9453,647.125 Q453.6875,647.3594 453.0781,647.3594 L449.0938,647.3594 Q448.4688,647.3594 448.2109,647.125 Q447.9531,646.8906 447.9531,646.5 Q447.9531,646.125 448.2109,645.8906 Q448.4688,645.6563 449.0938,645.6563 L450.2188,645.6563 L450.2188,639 L448.375,639 L448.375,640.6094 Q448.375,641.2188 448.1406,641.4844 Q447.9063,641.75 447.5313,641.75 Q447.1563,641.75 446.9219,641.4844 Q446.6875,641.2188 446.6875,640.6094 L446.6875,637.2969 L455.5,637.2969 L455.5,640.6094 Q455.5,641.2188 455.2578,641.4844 Q455.0156,641.75 454.6406,641.75 Q454.2656,641.75 454.0313,641.4844 Q453.7969,641.2188 453.7969,640.6094 L453.7969,639 L451.9219,639 Z " fill="#000000"/><text fill="#000000" font-family="sans-serif" font-size="14" lengthAdjust="spacing" textLength="56" x="465" y="647.3379">buildings</text><line style="stroke:#181818;stroke-width:0.5;" x1="437" x2="523" y1="657.6094" y2="657.6094"/><text fill="#000000" font-family="sans-serif" font-size="14" lengthAdjust="spacing" textLength="30" x="442" y="676.1426">int id</text><text fill="#000000" font-family="sans-serif" font-size="14" lengthAdjust="spacing" textLength="69" x="442" y="693.752">any field_1</text><text fill="#000000" font-family="sans-serif" font-size="14" lengthAdjust="spacing" textLength="66" x="442" y="711.3613">point point</text><line style="stroke:#181818;stroke-width:0.5;" x1="437" x2="523" y1="718.4375" y2="718.4375"/></g><!--MD5=[ec49f81b687d0890c480a4c6f80148dd]
class DataLens.roads--><g id="elem_DataLens.roads"><rect codeLine="31" fill="#F1F1F1" height="100.8281" id="DataLens.roads" rx="2.5" ry="2.5" style="stroke:#181818;stroke-width:0.5;" width="87" x="313.5" y="625.6094"/><ellipse cx="337.05" cy="641.6094" fill="#ADD1B2" rx="11" ry="11" style="stroke:#181818;stroke-width:1.0;"/><path d="M337.9719,639 L337.9719,645.6563 L339.1281,645.6563 Q339.7375,645.6563 339.9953,645.8906 Q340.2531,646.125 340.2531,646.5156 Q340.2531,646.8906 339.9953,647.125 Q339.7375,647.3594 339.1281,647.3594 L335.1438,647.3594 Q334.5188,647.3594 334.2609,647.125 Q334.0031,646.8906 334.0031,646.5 Q334.0031,646.125 334.2609,645.8906 Q334.5188,645.6563 335.1438,645.6563 L336.2688,645.6563 L336.2688,639 L334.425,639 L334.425,640.6094 Q334.425,641.2188 334.1906,641.4844 Q333.9563,641.75 333.5813,641.75 Q333.2063,641.75 332.9719,641.4844 Q332.7375,641.2188 332.7375,640.6094 L332.7375,637.2969 L341.55,637.2969 L341.55,640.6094 Q341.55,641.2188 341.3078,641.4844 Q341.0656,641.75 340.6906,641.75 Q340.3156,641.75 340.0813,641.4844 Q339.8469,641.2188 339.8469,640.6094 L339.8469,639 L337.9719,639 Z " fill="#000000"/><text fill="#000000" font-family="sans-serif" font-size="14" lengthAdjust="spacing" textLength="36" x="352.95" y="647.3379">roads</text><line style="stroke:#181818;stroke-width:0.5;" x1="314.5" x2="399.5" y1="657.6094" y2="657.6094"/><text fill="#000000" font-family="sans-serif" font-size="14" lengthAdjust="spacing" textLength="30" x="319.5" y="676.1426">int id</text><text fill="#000000" font-family="sans-serif" font-size="14" lengthAdjust="spacing" textLength="69" x="319.5" y="693.752">any field_2</text><text fill="#000000" font-family="sans-serif" font-size="14" lengthAdjust="spacing" textLength="75" x="319.5" y="711.3613">array points</text><line style="stroke:#181818;stroke-width:0.5;" x1="314.5" x2="399.5" y1="718.4375" y2="718.4375"/></g><!--MD5=[53c298d202c22651d49435566e13dd3b]
class API.buildings--><g id="elem_API.buildings"><rect codeLine="43" fill="#F1F1F1" height="136.0469" id="API.buildings" rx="2.5" ry="2.5" style="stroke:#181818;stroke-width:0.5;" width="155" x="420.5" y="155.6094"/><ellipse cx="465.75" cy="171.6094" fill="#ADD1B2" rx="11" ry="11" style="stroke:#181818;stroke-width:1.0;"/><path d="M466.6719,169 L466.6719,175.6563 L467.8281,175.6563 Q468.4375,175.6563 468.6953,175.8906 Q468.9531,176.125 468.9531,176.5156 Q468.9531,176.8906 468.6953,177.125 Q468.4375,177.3594 467.8281,177.3594 L463.8438,177.3594 Q463.2188,177.3594 462.9609,177.125 Q462.7031,176.8906 462.7031,176.5 Q462.7031,176.125 462.9609,175.8906 Q463.2188,175.6563 463.8438,175.6563 L464.9688,175.6563 L464.9688,169 L463.125,169 L463.125,170.6094 Q463.125,171.2188 462.8906,171.4844 Q462.6563,171.75 462.2813,171.75 Q461.9063,171.75 461.6719,171.4844 Q461.4375,171.2188 461.4375,170.6094 L461.4375,167.2969 L470.25,167.2969 L470.25,170.6094 Q470.25,171.2188 470.0078,171.4844 Q469.7656,171.75 469.3906,171.75 Q469.0156,171.75 468.7813,171.4844 Q468.5469,171.2188 468.5469,170.6094 L468.5469,169 L466.6719,169 Z " fill="#000000"/><text fill="#000000" font-family="sans-serif" font-size="14" lengthAdjust="spacing" textLength="56" x="486.25" y="177.3379">buildings</text><line style="stroke:#181818;stroke-width:0.5;" x1="421.5" x2="574.5" y1="187.6094" y2="187.6094"/><text fill="#000000" font-family="sans-serif" font-size="14" lengthAdjust="spacing" textLength="30" x="426.5" y="206.1426">int id</text><text fill="#000000" font-family="sans-serif" font-size="14" lengthAdjust="spacing" textLength="60" x="426.5" y="223.752">float area</text><text fill="#000000" font-family="sans-serif" font-size="14" lengthAdjust="spacing" textLength="98" x="426.5" y="241.3613">date build_date</text><text fill="#000000" font-family="sans-serif" font-size="14" lengthAdjust="spacing" textLength="143" x="426.5" y="258.9707">boolean is_emergency</text><text fill="#000000" font-family="sans-serif" font-size="14" lengthAdjust="spacing" textLength="66" x="426.5" y="276.5801">point point</text><line style="stroke:#181818;stroke-width:0.5;" x1="421.5" x2="574.5" y1="283.6563" y2="283.6563"/></g><!--MD5=[6e009766b92f2b96d1e9e3d79c9cf347]
class API.roads--><g id="elem_API.roads"><rect codeLine="50" fill="#F1F1F1" height="118.4375" id="API.roads" rx="2.5" ry="2.5" style="stroke:#181818;stroke-width:0.5;" width="87" x="298.5" y="164.6094"/><ellipse cx="322.05" cy="180.6094" fill="#ADD1B2" rx="11" ry="11" style="stroke:#181818;stroke-width:1.0;"/><path d="M322.9719,178 L322.9719,184.6563 L324.1281,184.6563 Q324.7375,184.6563 324.9953,184.8906 Q325.2531,185.125 325.2531,185.5156 Q325.2531,185.8906 324.9953,186.125 Q324.7375,186.3594 324.1281,186.3594 L320.1438,186.3594 Q319.5188,186.3594 319.2609,186.125 Q319.0031,185.8906 319.0031,185.5 Q319.0031,185.125 319.2609,184.8906 Q319.5188,184.6563 320.1438,184.6563 L321.2688,184.6563 L321.2688,178 L319.425,178 L319.425,179.6094 Q319.425,180.2188 319.1906,180.4844 Q318.9563,180.75 318.5813,180.75 Q318.2063,180.75 317.9719,180.4844 Q317.7375,180.2188 317.7375,179.6094 L317.7375,176.2969 L326.55,176.2969 L326.55,179.6094 Q326.55,180.2188 326.3078,180.4844 Q326.0656,180.75 325.6906,180.75 Q325.3156,180.75 325.0813,180.4844 Q324.8469,180.2188 324.8469,179.6094 L324.8469,178 L322.9719,178 Z " fill="#000000"/><text fill="#000000" font-family="sans-serif" font-size="14" lengthAdjust="spacing" textLength="36" x="337.95" y="186.3379">roads</text><line style="stroke:#181818;stroke-width:0.5;" x1="299.5" x2="384.5" y1="196.6094" y2="196.6094"/><text fill="#000000" font-family="sans-serif" font-size="14" lengthAdjust="spacing" textLength="30" x="304.5" y="215.1426">int id</text><text fill="#000000" font-family="sans-serif" font-size="14" lengthAdjust="spacing" textLength="55" x="304.5" y="232.752">str name</text><text fill="#000000" font-family="sans-serif" font-size="14" lengthAdjust="spacing" textLength="72" x="304.5" y="250.3613">road_t type</text><text fill="#000000" font-family="sans-serif" font-size="14" lengthAdjust="spacing" textLength="75" x="304.5" y="267.9707">array points</text><line style="stroke:#181818;stroke-width:0.5;" x1="299.5" x2="384.5" y1="275.0469" y2="275.0469"/></g><!--MD5=[707c68abe712e218f9aa4083f2a383b1]
link GeoJSON to GMN6--><g id="link_GeoJSON_GMN6"><path d="M223.9541,458.6094 C223.9087,458.6094 223.8632,458.6094 223.8178,458.6094 C223.4544,458.6094 223.0909,458.6094 222.7275,458.6094 C219.82,458.6094 216.9125,458.6094 214.005,458.6094 C208.19,458.6094 202.375,458.6094 196.56,458.6094 " fill="none" id="GeoJSON-GMN6" style="stroke:#181818;stroke-width:1.0;stroke-dasharray:7.0,7.0;"/></g><!--MD5=[40149556b6d904cc9b3acfefcf11ab07]
link DataLens to GMN12--><g id="link_DataLens_GMN12"><path d="M269.9489,676.1094 C269.9035,676.1094 269.858,676.1094 269.8126,676.1094 C269.449,676.1094 269.0853,676.1094 268.7217,676.1094 C265.8128,676.1094 262.9044,676.1094 259.9963,676.1094 C254.18,676.1094 248.365,676.1094 242.55,676.1094 " fill="none" id="DataLens-GMN12" style="stroke:#181818;stroke-width:1.0;stroke-dasharray:7.0,7.0;"/></g><!--MD5=[7cf3e73cac8b076355ac400784572531]
link API to GMN18--><g id="link_API_GMN18"><path d="M254.9811,223.6094 C254.9358,223.6094 254.8905,223.6094 254.8453,223.6094 C254.4832,223.6094 254.1211,223.6094 253.7591,223.6094 C250.8625,223.6094 247.9662,223.6094 245.07,223.6094 C239.2775,223.6094 233.485,223.6094 227.69,223.6094 " fill="none" id="API-GMN18" style="stroke:#181818;stroke-width:1.0;stroke-dasharray:7.0,7.0;"/></g><!--MD5=[183bbde6a5c45ce4a98e942a2b8b50d9]
link GeoJSON.buildings to DataLens.buildings--><g id="link_GeoJSON.buildings_DataLens.buildings"><path codeLine="63" d="M496.81,517.6394 C493.41,549.4594 489.22,588.6894 485.88,620.0294 " fill="none" id="GeoJSON.buildings-to-DataLens.buildings" style="stroke:#181818;stroke-width:1.0;stroke-dasharray:7.0,7.0;"/><polygon fill="#181818" points="485.31,625.3894,490.2391,616.8627,485.8386,620.4174,482.284,616.0169,485.31,625.3894" style="stroke:#181818;stroke-width:1.0;"/></g><!--MD5=[c9d647263b861d525e33694fb94fcece]
link GeoJSON.roads to DataLens.roads--><g id="link_GeoJSON.roads_DataLens.roads"><path codeLine="64" d="M340.19,517.6394 C343.59,549.4594 347.78,588.6894 351.12,620.0294 " fill="none" id="GeoJSON.roads-to-DataLens.roads" style="stroke:#181818;stroke-width:1.0;stroke-dasharray:7.0,7.0;"/><polygon fill="#181818" points="351.69,625.3894,354.716,616.0169,351.1614,620.4174,346.7609,616.8627,351.69,625.3894" style="stroke:#181818;stroke-width:1.0;"/></g><!--MD5=[66352c4155dac3e52e13d3e694d0a5f2]
reverse link API.buildings to GeoJSON.buildings--><g id="link_API.buildings_GeoJSON.buildings"><path codeLine="65" d="M499.55,296.9194 C500.26,329.8394 501.08,368.2794 501.75,399.2994 " fill="none" id="API.buildings-backto-GeoJSON.buildings" style="stroke:#181818;stroke-width:1.0;stroke-dasharray:7.0,7.0;"/><polygon fill="#181818" points="499.44,291.6894,495.6467,300.7784,499.5543,296.6881,503.6446,300.5956,499.44,291.6894" style="stroke:#181818;stroke-width:1.0;"/></g><!--MD5=[2268e316f2ca2d8f5026db4c14fbd697]
reverse link API.roads to GeoJSON.roads--><g id="link_API.roads_GeoJSON.roads"><path codeLine="66" d="M339.83,287.8694 C338.63,322.6194 337.17,365.4194 336,399.3494 " fill="none" id="API.roads-backto-GeoJSON.roads" style="stroke:#181818;stroke-width:1.0;stroke-dasharray:7.0,7.0;"/><polygon fill="#181818" points="340,282.7994,335.694,291.657,339.8287,287.7964,343.6893,291.9312,340,282.7994" style="stroke:#181818;stroke-width:1.0;"/></g><!--MD5=[8062f77ce63ab140cf7be7e5fa7433cf]
@startuml tables

title Общие типы таблиц в базе

database Postgress {
    namespace GeoJSON {
        class buildings << (T,#ADD1B2) >> {
            int id
            any field_1
            any field_2
            geometry geometry
        }
        class roads << (T,#ADD1B2) >> {
            int id
            any field_1
            any field_2
            geometry geometry
        }
    }
    note right of GeoJSON
    Сырые данные
    в формате GeoJSON
    от организаторов
    со всеми полями
    end note
    namespace DataLens {
        class buildings << (T,#ADD1B2) >> {
            int id
            any field_1
            point point
        }
        class roads << (T,#ADD1B2) >> {
            int id
            any field_2
            array points
        }
    }
    note right of DataLens
    Данные в CSV формате
    с полями необходимыми
    в Yandex DataLens
    end note
    namespace API {
        class buildings << (T,#ADD1B2) >> {
            int id
            float area
            date build_date
            boolean is_emergency
            point point
        }
        class roads << (T,#ADD1B2) >> {
            int id
            str name
            road_t type
            array points
        }
    }
    note right of API
    Обогащённые и обработанные
    данные в формате GeoJSON
    с полями необходимыми
    для API в Backend-е
    end note
    GeoJSON.buildings .down.> DataLens.buildings
    GeoJSON.roads .down.> DataLens.roads
    GeoJSON.buildings .up.> API.buildings
    GeoJSON.roads .up.> API.roads
}

@enduml

PlantUML version 1.2022.7(Mon Aug 22 20:01:30 MSK 2022)
(GPL source distribution)
Java Runtime: Java(TM) SE Runtime Environment
JVM: Java HotSpot(TM) 64-Bit Server VM
Default Encoding: Cp1251
Language: en
Country: US
--></g></svg>